<svg width="498" height="113" viewBox="0 0 498 113" fill="none" xmlns="http://www.w3.org/2000/svg">
<g clip-path="url(#clip0_1430_5)">
<path d="M66.6299 0H78.5281V111.05H66.6299V59.491H11.8982V111.05H0V0H11.8982V49.1792H66.6299V0ZM109.424 50.7657V90.4263C109.424 97.5652 114.976 103.118 122.115 103.118H141.946C149.084 103.118 154.637 97.5652 154.637 90.4263V50.7657C154.637 43.6267 149.084 38.0742 141.946 38.0742H122.115C114.976 38.0742 109.424 43.6267 109.424 50.7657ZM98.3188 90.4263V50.7657C98.3188 38.0742 107.837 28.5557 122.115 28.5557H141.946C156.223 28.5557 165.742 38.0742 165.742 50.7657V90.4263C165.742 103.118 156.223 112.636 141.946 112.636H122.115C107.044 112.636 98.3188 103.118 98.3188 90.4263ZM182.36 88.8399V0H193.465V88.8399C193.465 95.9788 199.017 101.531 206.156 101.531H208.536V111.05H206.156C191.878 111.05 182.36 101.531 182.36 88.8399ZM226.74 50.7657V90.4263C226.74 97.5652 232.293 103.118 239.431 103.118H259.262C266.401 103.118 271.953 97.5652 271.953 90.4263V50.7657C271.953 43.6267 266.401 38.0742 259.262 38.0742H239.431C232.293 38.0742 226.74 43.6267 226.74 50.7657ZM215.635 90.4263V50.7657C215.635 38.0742 225.154 28.5557 239.431 28.5557H259.262C273.54 28.5557 283.058 38.0742 283.058 50.7657V90.4263C283.058 103.118 273.54 112.636 259.262 112.636H239.431C224.36 112.636 215.635 103.118 215.635 90.4263ZM336.164 112.636H321.886C307.608 112.636 298.09 103.118 298.09 90.4263V52.3521C298.09 39.6607 307.608 30.1421 321.886 30.1421H354.408V0H365.513V111.05H358.374L356.787 99.9449H355.994C355.994 99.9449 349.648 112.636 336.164 112.636ZM321.886 103.118H336.164C348.062 103.118 354.408 88.8399 354.408 88.8399V39.6607H321.886C314.747 39.6607 309.195 45.2132 309.195 52.3521V90.4263C309.195 97.5652 314.747 103.118 321.886 103.118ZM429.684 111.05H417.785V0H466.965C483.622 0 494.727 11.105 494.727 26.176V41.2471C494.727 63.4571 473.31 66.6299 473.31 66.6299L497.9 106.291V111.05H486.002L461.412 67.4231H429.684V111.05ZM466.965 10.3118H429.684V57.1114H466.965C475.69 57.1114 482.829 49.9724 482.829 41.2471V26.176C482.829 17.4507 475.69 10.3118 466.965 10.3118Z" fill="url(#paint0_linear_1430_5)"/>
</g>
<defs>
<linearGradient id="paint0_linear_1430_5" x1="0" y1="0" x2="497.9" y2="0" gradientUnits="userSpaceOnUse">
<stop stop-color="#8F5E25"/>
<stop offset="0.5" stop-color="#FBF4A1"/>
<stop offset="1" stop-color="#8F5E25"/>
</linearGradient>
<clipPath id="clip0_1430_5">
<rect width="497.9" height="112.636" fill="white"/>
</clipPath>
</defs>
</svg>
