<svg width="512" height="512" viewBox="0 0 512 512" fill="none" xmlns="http://www.w3.org/2000/svg">
<path d="M457.075 187.681L456.902 187.507L277.906 8.27647C276.483 6.86199 274.912 5.60529 273.22 4.52822L268.066 1.71675L264.551 0.544939H261.974C258.024 -0.180995 253.975 -0.180995 250.025 0.544939H244.871L240.888 2.65354C238.668 3.85935 236.619 5.3563 234.796 7.10466L55.0971 187.507C43.0638 199.445 42.9858 218.878 54.9236 230.912L55.0971 231.085C67.227 242.658 86.3099 242.658 98.4409 231.085L205.511 124.249C210.13 119.72 217.547 119.793 222.076 124.413C224.184 126.562 225.383 129.44 225.425 132.45V481.306C225.424 498.257 239.164 511.999 256.115 512C273.066 512.001 286.807 498.261 286.809 481.31V132.45C286.9 125.981 292.218 120.81 298.687 120.901C301.696 120.944 304.574 122.142 306.723 124.249L413.325 231.085C425.486 242.808 444.742 242.808 456.903 231.085C468.936 219.147 469.014 199.714 457.075 187.681Z" fill="#A7B1B1"/>
</svg>
