<svg width="512" height="512" viewBox="0 0 512 512" fill="none" xmlns="http://www.w3.org/2000/svg">
<g clip-path="url(#clip0_1467_32)">
<path d="M320.837 285.783C311.969 277.752 299.755 273.903 283.859 273.903H191.415V367.268H283.859C299.754 367.268 312.136 363.169 320.837 354.886C329.621 346.687 334.055 334.975 334.055 319.916C334.055 305.108 329.705 293.814 320.837 285.783ZM308.12 225.631C316.486 218.436 320.669 208.23 320.669 194.844C320.669 179.785 316.904 169.16 309.375 163.053C301.846 156.946 290.97 153.851 276.747 153.851H191.414V236.34H276.747C289.297 236.34 299.754 232.826 308.12 225.631Z" fill="#5E3B7F"/>
<path d="M426.667 0H85.333C38.4 0 0 38.4 0 85.333V426.666C0 473.6 38.4 512 85.333 512H426.666C473.6 512 512 473.6 512 426.667V85.333C512 38.4 473.6 0 426.667 0ZM380.068 359.488C375.885 369.694 369.36 378.479 360.408 385.841C351.457 393.203 340.079 399.059 326.108 403.41C312.137 407.76 295.572 409.935 276.33 409.935H139.127V111.268H284.277C311.048 111.268 332.549 117.375 348.695 129.673C364.841 141.971 372.956 160.46 372.956 185.307C372.956 200.366 369.275 213.249 361.913 223.958C354.551 234.667 344.01 243.033 330.289 248.889V249.726C348.694 253.658 362.666 262.359 372.119 275.828C381.572 289.381 386.341 306.28 386.341 326.693C386.342 338.405 384.251 349.365 380.068 359.488Z" fill="#5E3B7F"/>
</g>
<defs>
<clipPath id="clip0_1467_32">
<rect width="512" height="512" fill="white"/>
</clipPath>
</defs>
</svg>
