<svg width="480" height="512" viewBox="0 0 480 512" fill="none" xmlns="http://www.w3.org/2000/svg">
<path d="M437.367 100.62L404.321 470.819L255.778 512L107.644 470.877L74.6331 100.62H437.367Z" fill="#004CE8"/>
<path d="M376.03 447.246L404.27 130.894H256V480.523L376.03 447.246Z" fill="#0065F4"/>
<path d="M150.31 268.217L154.38 313.627H256L275.533 290.922L256 268.217H150.31ZM256 176.305H142.132L146.26 221.716H256L275.533 199.01L256 176.305ZM256 433.399L275.533 409.318L256 386.153L255.801 386.206L205.227 372.55L201.994 336.333H156.409L162.771 407.634L255.791 433.457L256 433.399Z" fill="#EBEBEB"/>
<path d="M160 0H215V23H183V46H215V69H160V0ZM226 0H281V20H249V24H281V70H226V49H258V45H226V0ZM292 0H347V20H315V24H347V70H292V49H324V45H292V0Z" fill="white"/>
<path d="M311.761 313.627L306.49 372.521L255.843 386.191V433.435L348.937 407.634L349.62 399.962L360.291 280.411L361.399 268.217L369.597 176.305H255.843V221.716H319.831L315.699 268.217H255.843V313.627H311.761Z" fill="white"/>
</svg>
