<svg width="256" height="256" viewBox="0 0 256 256" fill="none" xmlns="http://www.w3.org/2000/svg">
<g clip-path="url(#clip0_1474_70)">
<path fill-rule="evenodd" clip-rule="evenodd" d="M73.93 70.918C75.684 89.382 77.424 107.742 79.204 126.514C82.106 121.524 84.206 116.738 87.374 112.818C90.324 109.166 94.042 105.796 98.088 103.462C103.37 100.414 110.296 103.284 112.008 108.69C112.468 110.14 111.37 112.084 110.986 113.802C109.694 113.12 108.028 112.744 107.184 111.7C103.598 107.266 101.438 106.742 97.472 110.574C90.074 117.726 85.914 126.686 84.326 136.756C84.02 138.704 85.238 140.89 85.752 142.966C87.774 142.27 90.122 142.014 91.756 140.798C97.068 136.844 100.36 131.466 102.176 125.038C102.57 123.646 104.706 122.748 106.042 121.622C106.682 122.938 108.142 124.488 107.836 125.53C105.022 135.21 101.968 144.828 98.764 154.388C98.44 155.356 96.662 155.838 95.556 156.546C95.11 155.274 94.172 153.942 94.322 152.744C94.658 150.028 95.532 147.378 96.142 144.89L81.662 151.556C82.472 160.8 83.312 171.17 84.308 181.526C85.072 189.434 86.366 191.482 94.154 192.982C103.242 194.732 112.5 195.85 121.738 196.53C135.388 197.536 148.918 196.292 162.198 192.722C167.142 191.394 169.114 188.142 169.468 183.288C169.792 178.818 170.516 174.376 171.018 169.918C172.004 161.136 172.962 152.352 173.97 143.202C170.636 145.314 168.014 147.678 164.948 148.68C162.716 149.41 159.9 148.342 157.342 148.074C157.832 145.726 157.802 143.08 158.934 141.1C160.778 137.864 163.382 135.058 165.662 132.07L164.68 130.888C163.046 131.854 161.016 132.488 159.854 133.858C157.49 136.646 155.176 139.63 153.594 142.898C150.946 148.368 148.928 154.142 146.558 159.75C145.528 162.182 144.64 165.902 141.19 164.482C137.5 162.96 140.096 159.71 140.962 157.398C142.34 153.71 144.16 150.186 145.392 147.474C141.9 147.89 138.36 148.392 134.804 148.702C133.3 148.83 131.512 148.006 130.282 148.562C126.192 150.41 123.6 149.668 122.75 145.14C120.856 146.37 119.252 148.036 117.362 148.484C115.068 149.03 111.956 149.388 110.276 148.242C108.93 147.324 108.44 143.874 108.9 141.85C109.814 137.826 111.522 133.958 113.144 130.132C114.148 127.762 115.158 123.978 118.546 125.626C121.894 127.252 118.854 129.996 118.082 132.198C116.884 135.602 115.664 139 114.456 142.4L116.376 143.56C118.204 141.972 120.482 140.678 121.762 138.73C123.858 135.546 125.124 131.826 127.108 128.558C127.93 127.204 129.7 126.428 131.042 125.39C131.314 127.114 131.966 128.886 131.75 130.55C131.536 132.232 130.354 133.77 129.788 135.434C128.938 137.926 128.252 140.474 127.388 143.372C131.474 143.528 133.224 141.808 134.378 138.774C138.03 129.188 141.722 119.612 145.736 110.174C146.422 108.558 148.754 107.646 150.328 106.406C150.51 108.354 151.378 110.562 150.76 112.204C147.47 120.902 143.776 129.444 140.304 138.074C139.718 139.528 139.53 141.142 139.16 142.682C145.278 139.932 150.384 136.892 152.248 130.39C152.704 128.81 154.572 127.636 155.79 126.274L158.622 129.274C159.482 128.55 160.27 127.726 161.204 127.124C164.144 125.23 167.31 123.56 170.41 126.494C173.618 129.528 171.19 132.484 169.514 135.108C167.69 137.97 165.456 140.568 163.4 143.28C168.024 140.3 174.338 138.964 175.178 132.524C177.226 116.794 179.026 101.032 180.852 85.274C181.394 80.61 181.684 75.916 182.106 71.056C145.686 79.874 110.048 79.928 73.93 70.918ZM89.562 193.656C91.316 198.29 93.98 202.842 94.678 207.678C96.152 217.972 96.526 228.422 97.57 238.786C97.722 240.296 98.7 242.37 99.92 243.034C117.88 252.794 136.014 254.486 154.338 243.812C157.072 242.22 157.578 240.118 157.932 237.162C159.646 222.8 155.83 207.566 165.012 194.042C139.3 200.42 114.206 200.618 89.562 193.656ZM151.544 73.496C160.268 72.654 168.886 70.606 177.514 68.914C179.14 68.596 180.584 67.358 182.112 66.544C180.098 64.774 178.356 63.922 176.536 63.708C167.476 62.638 158.384 61.814 149.33 60.692C147.962 60.522 145.52 58.834 145.622 58.526C148.264 50.566 148.134 41.556 154.13 34.848C161.708 26.368 169.364 17.962 176.962 9.55198C171.31 3.47198 171.234 3.46399 166.112 8.78599C163.216 11.794 160.57 15.086 157.428 17.81C145.802 27.886 137.636 39.82 136.044 55.554C135.678 59.164 133.696 60.468 129.906 60.524C117.394 60.706 104.868 61.05 92.384 61.872C86.198 62.278 80.088 63.866 73.942 64.918L73.886 67.216C77.732 68.402 81.504 69.96 85.432 70.714C107.32 74.91 129.414 75.63 151.544 73.496ZM144.552 68C139.598 72 135.504 72 131.55 68H144.552Z" fill="#EB4A4B"/>
</g>
<defs>
<clipPath id="clip0_1474_70">
<rect width="256" height="256" fill="white"/>
</clipPath>
</defs>
</svg>
