<svg width="256" height="256" viewBox="0 0 256 256" fill="none" xmlns="http://www.w3.org/2000/svg">
<path d="M95.922 158.04L96.308 158.228L96.996 158.56C97.874 158.978 98.76 159.392 99.654 159.79L100.216 160.04C101.242 160.49 102.274 160.918 103.318 161.33L104.074 161.626C105.038 162.002 106.018 162.366 107 162.712L107.368 162.838C108.446 163.214 109.534 163.564 110.632 163.906L111.422 164.14C112.538 164.478 113.64 164.88 114.792 165.094C187.9 178.424 209.134 121.16 209.134 121.16C191.298 144.396 159.64 150.526 129.644 143.702C128.508 143.446 127.404 143.09 126.296 142.762L125.462 142.51C124.38 142.178 123.304 141.828 122.238 141.462L121.796 141.302C120.84 140.966 119.894 140.61 118.954 140.248L118.158 139.936C117.126 139.53 116.102 139.104 115.09 138.66L114.476 138.388C113.606 137.994 112.744 137.596 111.888 137.184L111.138 136.824C110.466 136.496 109.8 136.146 109.136 135.804L107.8 135.104C106.99 134.67 106.194 134.22 105.402 133.758L104.592 133.306C103.538 132.684 102.496 132.042 101.466 131.39L100.624 130.83C99.876 130.348 99.132 129.858 98.4 129.352L97.684 128.848C96.976 128.348 96.276 127.842 95.582 127.328L94.65 126.622C94.014 126.136 93.38 125.646 92.754 125.142L91.908 124.462C91.112 123.806 90.324 123.148 89.544 122.472L89.286 122.254C88.44 121.518 87.614 120.76 86.798 120L86.098 119.326C85.492 118.752 84.898 118.172 84.312 117.578L83.612 116.878C82.868 116.116 82.138 115.344 81.422 114.562L81.314 114.446C80.556 113.618 79.816 112.772 79.092 111.918L78.51 111.226C77.97 110.576 77.434 109.916 76.912 109.25L76.326 108.522C75.696 107.706 75.082 106.892 74.48 106.064C57.828 83.348 51.844 52.018 65.154 26.288L53.356 41.252C38.238 62.978 40.122 91.246 51.668 114.334L52.514 115.976L53.056 117.016L53.392 117.614L53.994 118.692C54.352 119.324 54.718 119.952 55.094 120.58L55.724 121.618C56.14 122.29 56.566 122.954 57.004 123.618L57.548 124.462C58.15 125.358 58.766 126.254 59.4 127.134L59.454 127.204L59.766 127.626C60.316 128.384 60.882 129.132 61.454 129.872L62.09 130.68C62.6 131.322 63.122 131.962 63.65 132.598L64.246 133.308C64.956 134.146 65.68 134.978 66.42 135.792L66.464 135.838L66.548 135.93C67.268 136.718 68.008 137.486 68.756 138.258L69.464 138.972C70.044 139.556 70.632 140.13 71.228 140.702L71.95 141.388C72.744 142.136 73.546 142.87 74.366 143.59L74.406 143.62L74.826 143.98C75.548 144.604 76.284 145.226 77.024 145.836L77.934 146.56C78.538 147.044 79.15 147.522 79.766 147.992L80.744 148.736C81.424 149.236 82.108 149.728 82.798 150.21L83.548 150.742L83.754 150.888C84.41 151.34 85.08 151.772 85.75 152.206L86.614 152.782C87.64 153.432 88.684 154.074 89.738 154.694L90.602 155.182C91.378 155.628 92.156 156.066 92.946 156.494L94.242 157.166L95.922 158.04ZM103.308 84.45C104.946 86.798 106.76 89.59 108.934 91.478C109.722 92.346 110.546 93.19 111.386 94.024L112.034 94.66C112.852 95.452 113.682 96.23 114.538 96.988L114.642 97.076L114.666 97.102C115.616 97.934 116.596 98.734 117.592 99.522L118.258 100.042C119.258 100.808 120.276 101.56 121.32 102.278L121.41 102.344L122.806 103.264L123.47 103.704C124.216 104.18 124.97 104.648 125.74 105.092L126.06 105.278C126.722 105.66 127.394 106.036 128.066 106.4L128.778 106.774L130.182 107.5L130.394 107.596C131.358 108.07 132.33 108.526 133.322 108.96L133.968 109.226C134.76 109.562 135.562 109.892 136.366 110.2L137.394 110.576C138.126 110.848 138.858 111.096 139.598 111.342L140.596 111.662C141.648 111.988 142.686 112.4 143.782 112.582C200.226 121.936 213.258 78.474 213.258 78.474C201.51 95.392 178.762 103.462 154.486 97.162C153.408 96.878 152.344 96.572 151.29 96.238L150.328 95.928C149.578 95.686 148.832 95.428 148.092 95.158L147.084 94.782C146.274 94.47 145.47 94.148 144.676 93.812L144.028 93.536C143.032 93.102 142.05 92.646 141.084 92.166L139.606 91.414L138.754 90.976C138.126 90.636 137.502 90.28 136.886 89.922L136.44 89.668C135.674 89.222 134.922 88.762 134.176 88.29L133.494 87.832L132.03 86.864C130.988 86.146 129.976 85.396 128.98 84.634L128.294 84.092C117.668 75.706 109.246 64.238 105.24 51.236C101.044 37.756 101.948 22.62 109.218 10.338L100.286 22.95C89.354 38.68 89.948 59.742 98.476 76.38C99.904 79.166 101.51 81.874 103.308 84.45ZM162.802 64.988L164.204 65.474L164.822 65.67C165.488 65.878 166.146 66.122 166.832 66.25C197.998 72.272 206.454 50.256 208.704 47.016C201.298 57.678 188.854 60.236 173.584 56.53C172.378 56.238 171.052 55.804 169.888 55.39C168.398 54.858 166.93 54.254 165.502 53.57C162.79 52.266 160.206 50.688 157.81 48.876C144.146 38.506 135.658 18.732 144.574 2.62402L139.75 9.27202C133.306 18.758 132.672 30.538 137.144 41.01C141.86 52.13 151.524 60.85 162.802 64.988ZM132.718 192.59H124.266C123.798 192.59 123.332 192.966 123.232 193.424L120.232 207.304L117.232 221.184C117.134 221.642 116.668 222.018 116.2 222.018H110.218C104.3 222.018 104.984 217.924 106.196 212.316L106.232 212.146L106.364 211.438L106.388 211.306L106.658 209.866L106.948 208.324L107.256 206.754L108.62 200.09L109.986 193.426C110.08 192.966 109.772 192.588 109.304 192.588H100.63C100.162 192.588 99.698 192.964 99.602 193.424L97.736 202.272L95.872 211.122L95.868 211.134L95.696 211.958C93.548 221.764 94.116 231.118 105.792 231.412L106.132 231.418H124.458C124.926 231.418 125.392 231.042 125.49 230.584L129.442 212.006L133.394 193.426C133.492 192.966 133.188 192.592 132.718 192.59ZM42.206 192.492H32.926C32.456 192.492 31.988 192.868 31.884 193.324L31.004 197.208L30.124 201.092C30.022 201.55 30.32 201.924 30.79 201.924H40.142C40.612 201.924 41.078 201.548 41.178 201.09L42.028 197.208L42.878 193.326C42.976 192.868 42.676 192.492 42.206 192.492ZM39.514 204.58H30.16C29.692 204.58 29.222 204.956 29.118 205.412L27.804 211.232L26.492 217.05L26.126 218.718L24.864 224.658L23.604 230.6C23.506 231.058 23.304 231.798 23.154 232.242C23.154 232.242 21.406 237.442 18.468 237.382L18.1 237.374L15.558 237.328C15.09 237.322 14.618 237.688 14.508 238.142L13.538 242.22L12.57 246.296C12.46 246.752 12.756 247.128 13.222 247.136C14.888 247.156 18.62 247.198 20.878 247.198C28.216 247.198 32.086 243.132 34.564 231.432L37.466 218.004L40.188 205.41C40.286 204.956 39.982 204.58 39.514 204.58ZM211.748 201.432L211.36 199.83L210.978 198.19L210.784 197.362C210.024 194.408 207.794 192.706 202.95 192.706L195.41 192.698L188.466 192.688H180.652C180.184 192.688 179.72 193.064 179.622 193.522L179.276 195.154L178.868 197.082L178.754 197.624L175.236 214.104L171.896 229.748C171.796 230.208 171.764 230.772 171.82 231C171.876 231.23 172.778 231.418 173.246 231.418H180.294C180.764 231.418 181.358 231.334 181.614 231.23C181.87 231.126 182.248 230.204 182.342 229.746L183.594 223.548L184.848 217.348L184.85 217.338L185.018 216.512L186.538 209.392L187.88 203.104C187.98 202.646 188.442 202.272 188.91 202.27L211.088 202.26C211.558 202.264 211.854 201.89 211.748 201.432ZM240.298 186.952L238.59 186.958H231.492C231.022 186.958 230.42 187.276 230.158 187.664L214.46 210.66C214.196 211.048 213.894 210.992 213.79 210.536L212.634 205.47C212.53 205.012 212.06 204.638 211.59 204.638H201.5C201.03 204.638 200.752 205.006 200.88 205.456L205.402 221.298C205.53 221.75 205.54 222.49 205.424 222.946L203.454 230.612C203.336 231.068 203.624 231.438 204.094 231.438H214.068C214.536 231.438 215.016 231.066 215.132 230.612L217.104 222.946C217.22 222.488 217.546 221.812 217.83 221.436L243.314 187.614C243.598 187.238 243.444 186.932 242.976 186.936L240.298 186.952ZM160.126 206.79V206.782C160.068 207.29 159.598 207.664 159.128 207.664H146.334C145.89 207.664 145.666 207.364 145.732 206.992L145.744 206.962L145.736 206.966L145.742 206.924L145.8 206.706C147.022 203.458 149.51 201.326 154.188 201.326C159.456 201.324 160.484 203.896 160.126 206.79ZM156.372 192.022C139.95 192.022 136.058 201.99 133.874 212.052C131.692 222.308 131.878 231.894 148.874 231.894H150.934L151.446 231.892H151.566L153.606 231.886H153.642C158.13 231.868 162.632 231.834 164.454 231.82C164.92 231.812 165.376 231.438 165.472 230.98L166.16 227.618L166.294 226.964L167.114 222.952C167.208 222.494 166.902 222.116 166.432 222.116H151.154C145.076 222.116 143.272 220.502 143.938 215.754H168.36L168.358 215.756L168.374 215.754C168.762 215.748 169.122 215.48 169.264 215.124L169.322 214.912L169.32 214.914C172.946 201.236 171.906 192.024 156.372 192.022ZM78.752 206.738L78.52 207.556L76.676 214.094L74.832 220.628C74.706 221.082 74.216 221.45 73.746 221.45H63.986C56.582 221.45 54.778 215.658 56.582 207.118C58.384 198.382 61.918 192.952 69.206 192.402C79.166 191.65 81.158 198.654 78.752 206.738ZM85.448 220.948C85.448 220.948 90.05 209.772 91.094 203.32C92.52 194.682 88.194 182.15 71.486 182.15C54.874 182.15 47.658 194.112 44.906 207.118C42.154 220.218 45.76 231.704 62.278 231.61L75.31 231.562L87.488 231.518C87.956 231.514 88.436 231.142 88.556 230.69L90.678 222.598C90.796 222.142 90.51 221.77 90.04 221.766L88.006 221.754L85.972 221.742C85.574 221.74 85.346 221.48 85.394 221.138L85.448 220.948ZM167.688 213.466C167.688 213.776 167.438 214.028 167.128 214.028C166.82 214.028 166.568 213.776 166.568 213.466C166.568 213.158 166.818 212.908 167.128 212.908C167.438 212.908 167.688 213.158 167.688 213.466Z" fill="#0868AC"/>
</svg>
