<svg width="512" height="512" viewBox="0 0 512 512" fill="none" xmlns="http://www.w3.org/2000/svg">
<g clip-path="url(#clip0_1467_2)">
<path fill-rule="evenodd" clip-rule="evenodd" d="M256.001 0C397.385 0 512 114.616 512 256C512 397.385 397.385 512 256.001 512C114.616 512 0 397.385 0 256C0 114.616 114.616 0 256.001 0Z" fill="#CC6699"/>
<path d="M416.581 109.572C404.988 64.105 329.6 49.158 258.249 74.507C215.787 89.593 169.818 113.269 136.766 144.185C97.4671 180.943 91.2 212.937 93.783 226.305C102.895 273.476 167.529 304.309 194.098 327.185V327.324C186.263 331.18 128.921 360.2 115.501 389.869C101.341 421.168 117.755 443.628 128.622 446.651C162.291 456.019 196.841 439.169 215.409 411.475C233.326 384.748 231.835 350.234 224.048 333.067C234.789 330.233 247.312 328.963 263.226 330.822C308.133 336.067 316.944 364.107 315.259 375.841C313.575 387.577 304.156 394.029 301.006 395.976C297.857 397.925 296.895 398.6 297.16 400.048C297.542 402.153 299 402.075 301.685 401.62C305.382 400.997 325.267 392.074 326.116 370.413C327.199 342.91 300.843 312.147 254.177 312.95C234.958 313.282 222.873 315.11 214.143 318.358C213.494 317.617 212.834 316.887 212.162 316.167C183.312 285.386 129.978 263.613 132.24 222.233C133.063 207.189 138.292 167.576 234.72 119.526C313.712 80.165 376.949 90.996 387.877 115.001C403.488 149.296 354.08 213.038 272.048 222.233C240.794 225.737 224.337 213.623 220.243 209.112C215.933 204.362 215.291 204.148 213.682 205.039C211.061 206.491 212.722 210.684 213.682 213.183C216.132 219.557 226.182 230.861 243.318 236.484C258.392 241.431 295.087 244.148 339.466 226.983C389.168 207.758 427.981 154.276 416.581 109.572ZM205.125 341.275C208.849 355.052 208.441 367.9 204.593 379.535C201.533 388.789 196.271 397.18 189.703 404.346C174.829 420.573 154.047 426.708 145.136 421.539C135.513 415.961 140.333 393.082 157.579 374.853C176.131 355.241 202.824 342.631 202.824 342.631L202.784 342.551C203.552 342.137 204.333 341.711 205.125 341.275Z" fill="white"/>
</g>
<defs>
<clipPath id="clip0_1467_2">
<rect width="512" height="512" fill="white"/>
</clipPath>
</defs>
</svg>
