<?xml version="1.0" standalone="no"?>
<!DOCTYPE svg PUBLIC "-//W3C//DTD SVG 20010904//EN"
 "http://www.w3.org/TR/2001/REC-SVG-20010904/DTD/svg10.dtd">
<svg version="1.0" xmlns="http://www.w3.org/2000/svg"
 width="512.000000pt" height="512.000000pt" viewBox="0 0 512.000000 512.000000"
 preserveAspectRatio="xMidYMid meet">

<g transform="translate(0.000000,512.000000) scale(0.100000,-0.100000)"
fill="#000000" stroke="none">
<path d="M0 2560 l0 -2560 1010 0 1010 0 -2 1168 -3 1167 -393 3 -392 2 2 453
3 452 393 3 392 2 0 406 c0 453 8 545 62 714 60 189 144 325 274 450 165 158
382 256 639 289 44 5 -508 9 -1462 10 l-1533 1 0 -2560z"/>
<path d="M3599 5108 c84 -4 183 -12 220 -16 l66 -7 3 -407 2 -408 -277 0
c-153 0 -307 -5 -343 -11 -126 -20 -219 -79 -265 -169 -40 -80 -45 -133 -45
-495 l0 -345 444 0 c245 0 447 -3 449 -7 3 -6 -86 -718 -113 -900 0 -2 -175
-3 -390 -3 l-390 0 0 -1170 0 -1170 1080 0 1080 0 0 2560 0 2560 -837 -1
c-601 -2 -794 -4 -684 -11z"/>
</g>
</svg>
